<?xml version="1.0" standalone="no"?>
<!DOCTYPE svg PUBLIC "-//W3C//DTD SVG 20010904//EN"
 "http://www.w3.org/TR/2001/REC-SVG-20010904/DTD/svg10.dtd">
<svg version="1.0" xmlns="http://www.w3.org/2000/svg"
 width="184.000000pt" height="184.000000pt" viewBox="0 0 184.000000 184.000000"
 preserveAspectRatio="xMidYMid meet">
<metadata>
Created by potrace 1.14, written by Peter Selinger 2001-2017
</metadata>
<g transform="translate(0.000000,184.000000) scale(0.100000,-0.100000)"
fill="#000000" stroke="none">
<path d="M1550 1706 l0 -45 -47 -3 -48 -3 -3 -147 -3 -148 -339 0 -340 0 0
-50 0 -49 -92 -3 -93 -3 -3 -47 -3 -48 -95 0 -94 0 0 -45 0 -45 95 0 95 0 0
-50 0 -50 -95 0 -95 0 0 45 0 45 -50 0 -50 0 0 -45 0 -45 -50 0 -50 0 0 -145
0 -145 -45 0 -45 0 0 -100 0 -100 -50 0 -50 0 0 -190 0 -190 485 0 485 0 0 45
0 45 95 0 95 0 0 50 0 50 50 0 50 0 0 50 0 50 50 0 50 0 0 45 0 45 45 0 45 0
0 195 0 195 50 0 50 0 0 99 0 100 48 3 47 3 3 93 3 92 44 0 45 0 0 50 0 50 50
0 50 0 0 195 0 195 -145 0 -145 0 0 -44z m190 -156 l0 -100 -45 0 -45 0 0 -45
0 -45 -50 0 -50 0 0 95 0 95 50 0 50 0 0 50 0 50 45 0 45 0 0 -100z m-670
-340 l0 -50 190 0 190 0 0 50 0 50 50 0 50 0 0 -50 0 -50 -50 0 -50 0 0 -45 0
-45 -45 0 -45 0 0 -50 0 -50 45 0 45 0 0 -50 0 -50 -45 0 -45 0 0 -95 0 -95
-50 0 -50 0 0 -50 0 -50 50 0 50 0 0 -50 0 -50 -50 0 -50 0 0 -45 0 -45 -50 0
-50 0 0 -50 0 -50 -45 0 -45 0 0 50 0 50 -100 0 -100 0 0 -50 0 -50 50 0 50 0
0 -50 0 -50 -50 0 -50 0 0 50 0 50 -145 0 -145 0 0 -50 0 -50 -240 0 -240 0 0
145 0 145 45 0 45 0 0 100 0 100 50 0 50 0 0 45 0 45 50 0 50 0 0 50 0 50 -50
0 -50 0 0 50 0 50 50 0 50 0 0 -50 0 -50 95 0 95 0 0 50 0 50 95 0 95 0 0 50
0 50 -95 0 -95 0 0 45 0 45 95 0 95 0 0 50 0 50 150 0 150 0 0 -50z"/>
<path d="M770 1115 l0 -45 150 0 150 0 0 45 0 45 -150 0 -150 0 0 -45z"/>
<path d="M515 800 c-3 -5 1 -10 10 -10 53 0 218 -276 232 -387 3 -29 10 -53
16 -53 6 0 8 22 4 57 -4 42 -22 88 -66 177 -79 158 -170 258 -196 216z"/>
<path d="M763 771 c-27 -19 -43 -41 -51 -68 -18 -61 -16 -66 18 -59 22 4 32 1
36 -9 6 -15 44 -21 44 -7 0 4 16 6 35 4 38 -5 38 -4 50 97 7 62 0 71 -56 71
-24 0 -49 -10 -76 -29z"/>
<path d="M1160 530 l0 -50 -45 0 -45 0 0 -45 0 -45 45 0 45 0 0 45 0 45 50 0
50 0 0 50 0 50 -50 0 -50 0 0 -50z"/>
<path d="M290 385 l0 -95 50 0 50 0 0 95 0 95 -50 0 -50 0 0 -95z"/>
</g>
</svg>
