<?xml version="1.0" standalone="no"?>
<!DOCTYPE svg PUBLIC "-//W3C//DTD SVG 20010904//EN"
 "http://www.w3.org/TR/2001/REC-SVG-20010904/DTD/svg10.dtd">
<svg version="1.0" xmlns="http://www.w3.org/2000/svg"
 width="512.000000pt" height="512.000000pt" viewBox="0 0 512.000000 512.000000"
 preserveAspectRatio="xMidYMid meet">
<metadata>
Created by potrace 1.14, written by Peter Selinger 2001-2017
</metadata>
<g transform="translate(0.000000,512.000000) scale(0.100000,-0.100000)"
fill="#000000" stroke="none">
<path d="M4327 4853 c-4 -3 -7 -60 -7 -125 l0 -118 -130 0 c-143 0 -140 1
-145 -63 -2 -18 -3 -197 -4 -399 l-1 -368 -942 -2 -943 -3 -3 -124 c-2 -81 1
-128 9 -137 9 -11 83 -14 403 -14 215 0 397 0 404 0 10 0 12 -30 10 -132 l-3
-133 -415 0 -415 0 -3 133 -3 132 -244 0 c-208 0 -246 -2 -259 -16 -12 -12
-16 -37 -16 -112 0 -53 3 -107 6 -119 l6 -23 254 0 254 0 0 -125 0 -125 -259
0 c-198 0 -260 3 -263 13 -2 6 -3 50 -1 97 1 47 0 95 -2 108 l-5 22 -255 0
-255 0 -6 -24 c-3 -13 -4 -66 -2 -117 l3 -94 255 -5 255 -5 3 -137 3 -138
-261 0 -260 0 0 120 0 120 -134 0 -135 0 -3 -97 c-5 -157 -18 -143 133 -143
l129 0 0 -140 0 -141 -132 3 -133 3 -5 130 -5 130 -130 0 -130 0 -3 -396 -2
-397 34 -4 c19 -2 79 -2 135 0 l100 4 3 122 3 121 138 3 137 3 0 134 c0 126 1
134 20 140 12 4 123 6 248 5 125 -1 235 -2 245 -1 15 1 17 15 17 136 l0 135
263 2 262 3 3 137 3 138 412 2 412 3 3 128 3 127 529 0 529 0 -2 -122 -2 -123
-125 -5 -125 -5 0 -135 0 -135 122 -3 122 -3 3 -132 3 -132 132 -3 133 -3 2
278 3 278 137 3 138 3 2 262 3 262 100 1 c55 1 110 2 122 3 22 1 22 5 25 134
l3 132 143 3 142 3 0 534 0 535 -393 0 c-217 0 -397 -3 -400 -7z m508 -543 l0
-275 -120 -5 -120 -5 -5 -120 -5 -120 -124 -3 c-82 -2 -128 1 -137 9 -11 9
-14 59 -14 253 0 132 4 246 8 253 5 8 49 13 137 15 l130 3 3 125 c1 69 4 131
7 138 3 9 34 12 122 10 l118 -3 0 -275z m-525 -946 l0 -134 -135 0 -135 0 -1
103 c-1 127 1 161 11 167 4 3 65 4 134 2 l126 -3 0 -135z"/>
<path d="M3778 2158 l-3 -263 -131 -3 -131 -3 -7 -37 c-3 -20 -6 -81 -6 -134
l0 -98 -97 -1 c-54 -1 -114 -2 -133 -3 l-35 -1 -3 -137 -3 -138 -119 0 c-80 0
-121 -4 -126 -12 -4 -6 -6 -63 -5 -125 l2 -113 -279 0 c-223 0 -281 -3 -285
-13 -3 -7 -3 -61 -1 -120 3 -66 1 -114 -6 -127 -10 -20 -19 -20 -405 -20
l-395 0 0 -134 c0 -113 -2 -135 -16 -140 -28 -11 -1274 -7 -1294 4 -18 10 -19
29 -20 391 0 210 -3 386 -6 390 -6 10 -234 12 -258 3 -14 -5 -16 -61 -16 -520
l0 -514 1343 2 1342 3 3 117 3 118 -130 0 c-108 0 -130 3 -135 16 -3 9 -6 69
-6 134 0 98 3 119 16 124 30 12 239 7 252 -6 8 -8 12 -53 12 -135 l0 -123 258
2 257 3 0 130 0 130 -117 3 -118 3 0 134 0 135 125 0 125 0 0 -130 0 -130 113
-1 c131 -2 140 -1 150 14 10 16 6 217 -5 240 -8 15 -25 17 -133 17 l-125 0 0
120 0 120 135 0 135 0 0 -102 c0 -57 4 -109 9 -117 12 -19 234 -29 256 -11 16
14 20 92 9 188 l-7 52 -128 0 -129 0 0 135 0 135 135 0 135 0 0 -129 0 -129
58 -5 c49 -4 135 -4 180 2 11 1 13 101 11 523 -1 288 -4 528 -6 535 -4 10 -37
13 -124 13 l-119 0 -2 -262z"/>
<path d="M1440 2234 c-21 -21 -22 -27 -10 -34 8 -5 26 -10 40 -11 39 -1 105
-41 108 -66 2 -12 41 -60 88 -107 46 -46 84 -90 84 -96 0 -7 14 -28 30 -47 17
-19 30 -45 30 -60 0 -14 10 -35 23 -47 12 -11 31 -41 41 -66 11 -25 26 -52 33
-61 7 -8 13 -21 13 -27 0 -11 6 -26 31 -72 5 -8 20 -38 34 -67 14 -28 30 -55
35 -58 6 -3 10 -21 10 -39 0 -19 7 -39 15 -46 8 -7 15 -20 15 -30 0 -10 6 -23
14 -29 15 -13 24 -65 32 -181 6 -103 11 -120 34 -120 29 0 34 16 31 123 -2 71
-7 104 -17 114 -10 10 -13 26 -8 47 4 23 1 38 -10 49 -9 8 -16 22 -16 29 0 8
-7 23 -15 34 -8 10 -15 31 -15 45 0 15 -7 32 -15 39 -8 7 -15 17 -15 23 0 18
-33 87 -42 87 -4 0 -8 8 -8 19 0 10 -7 24 -15 31 -8 7 -15 23 -15 35 0 13 -7
25 -15 29 -8 3 -15 12 -15 20 0 21 -31 76 -57 101 -14 13 -23 34 -23 52 0 19
-10 39 -30 58 -16 16 -30 36 -30 45 0 8 -38 53 -85 100 -47 47 -85 92 -85 100
0 19 -63 80 -83 80 -8 0 -20 7 -27 15 -19 23 -64 18 -90 -11z"/>
<path d="M2220 2215 c-7 -8 -19 -15 -28 -15 -8 0 -25 -11 -38 -25 -13 -14 -30
-25 -40 -25 -9 0 -38 -22 -65 -49 -37 -37 -49 -57 -49 -79 0 -16 -7 -35 -15
-42 -8 -7 -15 -26 -15 -42 0 -16 -7 -36 -15 -44 -9 -9 -15 -34 -15 -60 0 -37
4 -46 23 -53 26 -9 95 -3 103 10 14 23 78 -10 73 -37 -5 -31 2 -35 59 -32 50
3 57 6 60 26 3 21 22 32 22 12 0 -6 35 -10 85 -10 76 0 85 2 85 19 0 10 7 25
16 32 14 12 16 29 10 127 -6 104 -5 115 14 139 14 19 20 40 20 79 0 51 -1 54
-25 54 -14 0 -28 7 -31 15 -5 12 -27 15 -114 15 -83 0 -110 -3 -120 -15z"/>
<path d="M290 1605 l0 -275 120 0 120 0 2 250 c1 138 2 260 2 273 1 22 -2 22
-121 25 l-123 3 0 -276z"/>
<path d="M806 1342 c-7 -12 -9 -532 -2 -539 3 -3 67 -6 142 -6 106 0 138 3
145 14 14 22 11 513 -3 527 -14 14 -274 17 -282 4z"/>
</g>
</svg>
